<?xml version="1.0" encoding="utf-8"?>
<!-- Generator: Adobe Illustrator 24.3.0, SVG Export Plug-In . SVG Version: 6.00 Build 0)  -->
<svg version="1.1" id="Layer_1" xmlns="http://www.w3.org/2000/svg" xmlns:xlink="http://www.w3.org/1999/xlink" x="0px" y="0px"
	 width="550px" height="376px" viewBox="0 0 550 376" style="enable-background:new 0 0 550 376;" xml:space="preserve">
<style type="text/css">
	.st0{opacity:0.15;}
	.st1{fill-rule:evenodd;clip-rule:evenodd;fill:#8E8E8E;}
	.st2{fill:#8E8E8E;}
</style>
<g class="st0">
	<path id="Path_13" class="st1" d="M27.3,113.4h90.4V69.6H95.1v29H75.9v-29H46.5v29H27.3v-29H4.7v43.8H27.3z"/>
	<path id="Path_14" class="st1" d="M116.6,120.4H5.8v17.7h13.4v10.1h83.9v-10.1h13.4V120.4z"/>
	<rect id="Rectangle_21" y="303.6" class="st2" width="122.4" height="72.3"/>
	<path id="Path_15" class="st1" d="M8.9,297.8h104.7l-10.4-140.3H19.2L8.9,297.8z"/>
	<path id="Path_16" class="st1" d="M331.7,43.9V0.1h-22.6v29h-19.2v-29h-29.4v29h-19.2v-29h-22.6v43.8H331.7z"/>
	<path id="Path_17" class="st1" d="M330.6,51H219.8v17.7h13.4v10.2h83.9V68.7h13.4V51z"/>
	<path id="Path_18" class="st1" d="M275.2,246.5c26,0,47.1,33.6,47.6,75.3h11.3v-87.7H216.3v87.7h11.3
		C228.1,280.1,249.2,246.5,275.2,246.5"/>
	<path id="Path_19" class="st1" d="M233.3,88.1l-10.4,140.3h104.7L317.2,88.1H233.3z"/>
	<path id="Path_20" class="st1" d="M208.3,287.1l-79.4,50.9l0.4,24.4l79.4-50.8C208.4,303.2,208.3,295.1,208.3,287.1"/>
	<path id="Path_21" class="st1" d="M208.8,247.5l-80.7,51.7l0.4,22.7l79.8-51.1C208.4,262.8,208.6,255,208.8,247.5"/>
	<path id="Path_22" class="st1" d="M212.3,187l-90.9,58.2c1,13.3,2.2,28.8,3.6,45.9l84.2-53.9C209.9,218.5,211.1,201.6,212.3,187"/>
	<path id="Path_23" class="st1" d="M120.5,234.2l92.9-59.5c1-10.4,2-19,2.8-25.7l-97.5,62.4C119.2,217.3,119.8,225,120.5,234.2"/>
	<path id="Path_24" class="st1" d="M341.8,311.6l79.4,50.8l0.4-24.4l-79.4-50.9C342.1,295.1,342,303.2,341.8,311.6"/>
	<path id="Path_25" class="st1" d="M342.1,270.8l79.8,51.1l0.4-22.7l-80.7-51.7C341.9,255,342,262.8,342.1,270.8"/>
	<path id="Path_26" class="st1" d="M338.1,187c1.2,14.5,2.4,31.5,3.1,50.2l84.2,53.9c1.3-17.1,2.6-32.6,3.6-45.9L338.1,187z"/>
	<path id="Path_27" class="st1" d="M337,174.7l92.9,59.5c0.7-9.1,1.3-16.9,1.7-22.8L334.2,149C335,155.6,336,164.3,337,174.7"/>
	<path id="Path_28" class="st1" d="M454.9,113.4h90.4V69.6h-22.7v29h-19.2v-29h-29.4v29h-19.2v-29h-22.6v43.8H454.9L454.9,113.4z"/>
	<path id="Path_29" class="st1" d="M544.2,120.4H433.4v17.7h13.4v10.1h83.9v-10.1h13.4V120.4z"/>
	<rect id="Rectangle_22" x="427.6" y="303.6" class="st2" width="122.4" height="72.3"/>
	<path id="Path_30" class="st1" d="M446.9,157.5l-10.4,140.3h104.7l-10.4-140.3H446.9z"/>
</g>
</svg>
